<svg id="Calque_1" data-name="Calque 1" xmlns="http://www.w3.org/2000/svg" viewBox="0 0 250 250"><defs><style>.cls-1,.cls-2{fill:#482ff7;}.cls-1{opacity:0.29;}.cls-3{fill:none;stroke:#fff;stroke-linecap:round;stroke-miterlimit:10;stroke-width:3px;}</style></defs><title>Plan de travail 2</title><path class="cls-1" d="M65.64,57.64H195.36a8,8,0,0,1,8,8v60a77.7,77.7,0,0,1-77.7,77.7h-60a8,8,0,0,1-8-8V65.64A8,8,0,0,1,65.64,57.64Z"/><path class="cls-2" d="M54.64,46.64H184.36a8,8,0,0,1,8,8v60a77.7,77.7,0,0,1-77.7,77.7h-60a8,8,0,0,1-8-8V54.64A8,8,0,0,1,54.64,46.64Z"/><line class="cls-3" x1="62.15" y1="93.58" x2="172.38" y2="93.58"/><line class="cls-3" x1="62.62" y1="120.2" x2="172.85" y2="120.2"/><line class="cls-3" x1="62.62" y1="145.42" x2="172.85" y2="145.42"/></svg>