<svg id="Calque_1" data-name="Calque 1" xmlns="http://www.w3.org/2000/svg" viewBox="0 0 250 250"><defs><style>.cls-1{fill:none;}.cls-1,.cls-2{stroke:#00aeff;stroke-linecap:round;stroke-miterlimit:10;stroke-width:3px;}.cls-2{fill:#482ff7;}.cls-3{fill:#00aeff;}</style></defs><title>Plan de travail 4</title><line class="cls-1" x1="17.25" y1="203.5" x2="232.75" y2="203.5"/><rect class="cls-2" x="42.5" y="72.5" width="72" height="131"/><rect class="cls-2" x="135.5" y="72.5" width="72" height="131"/><rect class="cls-3" x="56.5" y="83.5" width="9" height="15"/><rect class="cls-3" x="90" y="84" width="9" height="15"/><rect class="cls-3" x="56.5" y="113.5" width="9" height="15"/><rect class="cls-3" x="90" y="114" width="9" height="15"/><rect class="cls-3" x="56.5" y="144.5" width="9" height="15"/><rect class="cls-3" x="90" y="145" width="9" height="15"/><rect class="cls-3" x="56.5" y="177.5" width="9" height="15"/><rect class="cls-3" x="90" y="178" width="9" height="15"/><rect class="cls-3" x="150.5" y="83.5" width="9" height="15"/><rect class="cls-3" x="184" y="84" width="9" height="15"/><rect class="cls-3" x="150.5" y="113.5" width="9" height="15"/><rect class="cls-3" x="184" y="114" width="9" height="15"/><rect class="cls-3" x="150.5" y="144.5" width="9" height="15"/><rect class="cls-3" x="184" y="145" width="9" height="15"/><rect class="cls-3" x="150.5" y="177.5" width="9" height="15"/><rect class="cls-3" x="184" y="178" width="9" height="15"/><rect class="cls-2" x="89.5" y="113.5" width="72" height="90"/><rect class="cls-3" x="104.5" y="136.5" width="9" height="15"/><rect class="cls-3" x="138" y="137" width="9" height="15"/><rect class="cls-3" x="104.5" y="166.5" width="9" height="15"/><rect class="cls-3" x="138" y="167" width="9" height="15"/></svg>