<svg id="Calque_1" data-name="Calque 1" xmlns="http://www.w3.org/2000/svg" viewBox="0 0 250 250"><defs><style>.cls-1{opacity:0.29;}.cls-2{fill:#482ff7;}.cls-3{fill:#ffc200;}</style></defs><title>Plan de travail 3</title><g class="cls-1"><path class="cls-2" d="M113,189c-.09,1.5,4.7-.2,6.11-.16a2.57,2.57,0,0,0,2.64-2.42,38.62,38.62,0,0,1,33.37-35.76,13.51,13.51,0,0,0-2.5-7.85c-.19-.3,6.49-9.81-7.62-9.81-10,0-23.33,1.49-23.33-8.41a5.15,5.15,0,0,1,5.15-5.15h26a18,18,0,0,1,12.73,5.28c6.22,6.21,9.91,9.25,12.74,15.76,3.24,7.43,2.57,11.48,2.57,29.14h0a42.37,42.37,0,0,1-15.21,32.56,42.27,42.27,0,0,1-19.52,4.74h-18a42.46,42.46,0,0,1-42.46-42.45"/></g><path class="cls-2" d="M119.82,109.3v-6.43a16.72,16.72,0,0,0-8.55-14.59L101,51.35a11.59,11.59,0,0,1,19.75,4.78c1.95,7.27-.54-2,14.24,53.17Z"/><path class="cls-2" d="M178.6,66.86c-3.1,11.58-11,41.07-13.87,51.77-3.23-3.24-8.52-9.33-18.92-9.33h-2.55c2.33-8.71,11.47-42.81,13-48.43a11.58,11.58,0,0,1,22.37,6Z"/><path class="cls-2" d="M109.53,119.59a23,23,0,0,0,4.86,14.17,11.61,11.61,0,0,1-8.72,8.7,11.58,11.58,0,0,1-9-11.29V93.24a11.59,11.59,0,0,1,18,9.63v7.81A10.25,10.25,0,0,0,109.53,119.59Z"/><path class="cls-2" d="M91.52,111.87V135a10.28,10.28,0,0,1-7.72,10,10.29,10.29,0,0,1-7.72-10V103A10.3,10.3,0,0,1,91.52,111.87Z"/><path class="cls-2" d="M173.85,164.62a42.37,42.37,0,0,1-15.21,32.56,42.27,42.27,0,0,1-19.52,4.74h-18a42.46,42.46,0,0,1-42.46-42.45v-9.22a15.42,15.42,0,0,0,14.59-5.54s0,0,0,0a16.72,16.72,0,0,0,25.15-6.87c7.09,5.56,13.54,4.92,20,4.92a43.76,43.76,0,0,0-28.84,38.36,2.57,2.57,0,1,0,5.13.31,38.62,38.62,0,0,1,33.37-35.76,13.51,13.51,0,0,0-2.5-7.85c-.19-.3,1.18-.21-12.93-.21a18,18,0,0,1-18-18,5.15,5.15,0,0,1,5.15-5.15h26a18,18,0,0,1,12.73,5.28c6.22,6.21,9.91,9.25,12.74,15.76,3.24,7.43,2.57,11.48,2.57,29.14Z"/><path class="cls-3" d="M73,78.24q0-8.13,9-8.13t9.05,8.13a7.89,7.89,0,0,1-2.26,6q-2.27,2.16-6.79,2.16Q73,86.42,73,78.24Z"/><path class="cls-3" d="M132,60.24q0-8.13,9-8.13t9.05,8.13a7.89,7.89,0,0,1-2.26,6q-2.27,2.16-6.79,2.16Q132,68.42,132,60.24Z"/><path class="cls-3" d="M185,78.24q0-8.13,9-8.13t9.05,8.13a7.89,7.89,0,0,1-2.26,6q-2.27,2.16-6.79,2.16Q185,86.42,185,78.24Z"/></svg>