<svg xmlns="http://www.w3.org/2000/svg" width="172.842" height="87.454" viewBox="0 0 172.842 87.454">
  <g id="Groupe_41" data-name="Groupe 41" transform="translate(-183.418 -124.12)">
    <g id="Groupe_38" data-name="Groupe 38" transform="translate(284.67 146.36)">
      <path id="Tracé_68" data-name="Tracé 68" d="M356.831,166.955q0-4.744,5.286-4.745t5.285,4.745a4.626,4.626,0,0,1-1.321,3.518,5.553,5.553,0,0,1-3.964,1.258Q356.831,171.731,356.831,166.955Z" transform="translate(-356.831 -162.21)" fill="#ffc200"/>
    </g>
    <g id="Groupe_39" data-name="Groupe 39" transform="translate(183.418 159.638)">
      <path id="Tracé_69" data-name="Tracé 69" d="M269.384,184.952a15.242,15.242,0,0,0-6.48,1.321,10.268,10.268,0,0,0-4.474,3.9h-.541l-1.306-4.554h-7.419v12.373a14.923,14.923,0,0,0-3.991-8.742q-4.2-4.3-11.75-4.3-7.9,0-12.371,4.888-3.765,4.115-4.357,11.107V185.621h-8.215l-.8,4.554h-.255a12.025,12.025,0,0,0-10.317-5.222,11.844,11.844,0,0,0-10.047,4.888q-3.646,4.889-3.646,13.645,0,8.5,3.518,13.437a11.471,11.471,0,0,0,9.919,4.936A11.255,11.255,0,0,0,206.95,216.6h.287l-.287,4.362v.7q0,8.087-7.483,8.088a35.218,35.218,0,0,1-13.884-2.738v7.77a37.418,37.418,0,0,0,13.311,2.1q8.852,0,13.326-3.964t4.474-11.639v-15.06q.624,6.862,4.724,10.889,4.841,4.745,13.438,4.745a34.326,34.326,0,0,0,7.069-.621,22.811,22.811,0,0,0,5.446-1.895v-7.514a30.432,30.432,0,0,1-5.987,2.133,26.686,26.686,0,0,1-6.082.669,8.626,8.626,0,0,1-6.433-2.325,9.344,9.344,0,0,1-2.452-6.464h22.747v15.38h9.712v-16.75q0-6.3,1.815-9.027t5.891-2.723a4.984,4.984,0,0,1,4.363,1.926,9.993,9.993,0,0,1,1.369,5.78v20.794h9.712V198.007q0-6.337-3.216-9.7T269.384,184.952Zm-61.766,19.774q0,5.032-1.688,7.276t-5.6,2.245a5.856,5.856,0,0,1-5.3-2.643q-1.7-2.643-1.7-7.993,0-10.763,6.846-10.763,3.917,0,5.684,2.5t1.767,8.2Zm19.021-5.349a9.062,9.062,0,0,1,2.006-5.557,6.161,6.161,0,0,1,4.84-1.958,6.363,6.363,0,0,1,4.9,1.958,8.1,8.1,0,0,1,1.878,5.557Z" transform="translate(-183.418 -184.952)" fill="#482ff7"/>
      <path id="Tracé_70" data-name="Tracé 70" d="M364.856,186.1H358.8l-2.607,33.085a5.839,5.839,0,0,0,1.5,4.384l3.272,3.6a1.168,1.168,0,0,0,1.729,0l3.272-3.6a5.837,5.837,0,0,0,1.5-4.384Z" transform="translate(-255.306 -185.428)" fill="#482ff7"/>
      <path id="Tracé_71" data-name="Tracé 71" d="M436.061,206.1a9.321,9.321,0,0,0-2.866-3.375,28.217,28.217,0,0,0-6.114-3.152,37.678,37.678,0,0,1-6.065-2.834,2.733,2.733,0,0,1-1.386-2.261q0-2.324,4.3-2.324a15.7,15.7,0,0,1,4.745.732q2.324.733,5,1.879l2.929-7.005a29.605,29.605,0,0,0-12.514-2.8q-6.752,0-10.429,2.6a8.228,8.228,0,0,0-3.388,4.888v-6.815H400.56v16.75q0,6.305-1.815,9.027t-5.891,2.723a4.981,4.981,0,0,1-4.363-1.926,9.99,9.99,0,0,1-1.369-5.78V185.621H377.41v23.214q0,6.3,3.184,9.664t9.457,3.36a15.116,15.116,0,0,0,6.528-1.353,10.244,10.244,0,0,0,4.426-3.837h.51l1.306,4.554h7.451s8.933.637,11.524.637q7.578,0,11.384-2.866t3.805-8.343A10.374,10.374,0,0,0,436.061,206.1Zm-13.947,8.661a24.71,24.71,0,0,1-5.971-.859,34.153,34.153,0,0,1-5.871-2.035V197.728a8.812,8.812,0,0,0,.586,1.823,8.951,8.951,0,0,0,2.8,3.36,28.8,28.8,0,0,0,6.034,3.184q2.867,1.21,4.586,2.118a10.153,10.153,0,0,1,2.42,1.624,2.55,2.55,0,0,1,.7,1.863Q427.4,214.757,422.114,214.757Z" transform="translate(-264.143 -184.952)" fill="#482ff7"/>
    </g>
    <g id="Groupe_40" data-name="Groupe 40" transform="translate(186.065 124.12)">
      <path id="Tracé_72" data-name="Tracé 72" d="M191.974,128.653v21.279h8.293v3.247H187.951V128.653Z" transform="translate(-187.951 -126.006)" fill="#482ff7"/>
      <path id="Tracé_73" data-name="Tracé 73" d="M213.877,126.7a2.559,2.559,0,1,1,2.576,2.577A2.546,2.546,0,0,1,213.877,126.7Zm.53,5.153h4.023v19.444h-4.023Z" transform="translate(-198.739 -124.12)" fill="#482ff7"/>
      <path id="Tracé_74" data-name="Tracé 74" d="M230.191,137.192H227.9v-3.281h2.293v-4.835h4.059v4.835h4.729v3.281H234.25v10.763c0,1.447.565,2.047,2.258,2.047h2.47v3.353H235.8c-3.458,0-5.611-1.447-5.611-5.4Z" transform="translate(-204.574 -126.182)" fill="#482ff7"/>
      <path id="Tracé_75" data-name="Tracé 75" d="M252.673,137.192h-2.294v-3.281h2.294v-4.835h4.058v4.835h4.729v3.281h-4.729v10.763c0,1.447.565,2.047,2.258,2.047h2.471v3.353h-3.177c-3.458,0-5.61-1.447-5.61-5.4Z" transform="translate(-213.929 -126.182)" fill="#482ff7"/>
      <path id="Tracé_76" data-name="Tracé 76" d="M275.7,125.933h4.023v26.114H275.7Z" transform="translate(-224.466 -124.874)" fill="#482ff7"/>
      <path id="Tracé_77" data-name="Tracé 77" d="M299.065,156.893c-5.576,0-9.7-3.952-9.7-10.058s3.952-10.022,9.7-10.022c5.54,0,9.458,3.847,9.458,9.563a12.428,12.428,0,0,1-.141,1.976H293.524a5.35,5.35,0,0,0,5.541,5.153,4.708,4.708,0,0,0,4.588-2.717h4.341C306.9,154.175,303.828,156.893,299.065,156.893Zm-5.505-11.787h10.764c-.071-3-2.435-4.905-5.435-4.905A5.3,5.3,0,0,0,293.559,145.106Z" transform="translate(-230.15 -129.402)" fill="#482ff7"/>
    </g>
  </g>
</svg>
