<?xml version="1.0" encoding="utf-8"?>
<!-- Generator: Adobe Illustrator 23.1.1, SVG Export Plug-In . SVG Version: 6.00 Build 0)  -->
<svg version="1.1" id="Calque_1" xmlns="http://www.w3.org/2000/svg" xmlns:xlink="http://www.w3.org/1999/xlink" x="0px" y="0px"
	 viewBox="0 0 250 250" style="enable-background:new 0 0 250 250;" xml:space="preserve">
<style type="text/css">
	.st0{fill:#FFFFFF;}
	.st1{fill:#E8834D;}
	.st2{fill:#D66E41;}
	.st3{fill:#482FF7;}
	.st4{fill:#2A2AD3;}
	.st5{fill:#365E7D;}
	.st6{fill:#FFE27A;}
	.st7{fill:#FFC200;}
</style>
<rect class="st0" width="250" height="250"/>
<g>
	<g>
		<path class="st1" d="M152.6,56.3c-0.3-0.2-2.9-2.2-7.6-4.1c-6-2.4-13-3.7-20-3.7s-14,1.3-20,3.7c-4.7,1.9-7.3,3.8-7.6,4.1
			c-1.4,1.1-2.3,2.8-2.3,4.6v9l5.7,3.1l5.7-3.1v-5.8c3.2-1.6,9.5-4.1,18.4-4.1c8.9,0,15.2,2.5,18.4,4.1v5.8l5.7,3.1l5.7-3.1v-9
			C154.9,59,154,57.4,152.6,56.3L152.6,56.3z"/>
		<g>
			<path class="st2" d="M95.1,69.9v6.3l5.7,3.1l5.7-3.1v-6.3H95.1z"/>
			<path class="st2" d="M154.9,69.9h-11.5v6.3l5.7,3.1l5.7-3.1V69.9z"/>
		</g>
		<path class="st3" d="M42.1,139.4v51.1c0,6.1,4.9,11,11,11H197c6.1,0,11-4.9,11-11v-51.1H42.1z"/>
		<path class="st4" d="M42.1,133.1v6.3c9.1,7.2,33.2,21.3,82.9,21.3s73.8-14.1,82.9-21.3v-6.3L42.1,133.1L42.1,133.1z"/>
		<path class="st4" d="M41.6,129.4c8.7,7.1,32.8,21.7,83.4,21.7s74.7-14.6,83.4-21.7c2.6-2.1,4-8.3,4-11.6V87.2c0-6.1-4.9-11-11-11
			h-153c-6.1,0-11,4.9-11,11v30.7C37.5,121.2,39,127.4,41.6,129.4z"/>
		<path class="st5" d="M208.4,126.4c-8.7,7.1-32.8,21.7-83.4,21.7s-74.7-14.6-83.4-21.7c-2.6-2.1-4-5.2-4-8.5v6.3
			c0,3.3,1.5,6.4,4,8.5c8.7,7.1,32.8,21.7,83.4,21.7s74.7-14.6,83.4-21.7c2.6-2.1,4-5.2,4-8.5v-6.3
			C212.5,121.2,211,124.3,208.4,126.4z"/>
		<path class="st6" d="M125,165c5.7,0,10.3-4.2,10.3-13.4v-6.2c0-2-1.6-3.7-3.7-3.7h-13.2c-2,0-3.7,1.6-3.7,3.7v6.2
			C114.7,160.7,119.3,165,125,165z"/>
		<path class="st7" d="M125,161.9c-5.7,0-10.3-4.6-10.3-10.3v6.3c0,5.7,4.6,10.3,10.3,10.3c5.7,0,10.3-4.6,10.3-10.3v-6.3
			C135.3,157.3,130.7,161.9,125,161.9L125,161.9z"/>
	</g>
</g>
</svg>
