<svg id="Calque_1" data-name="Calque 1" xmlns="http://www.w3.org/2000/svg" viewBox="0 0 250 250"><defs><style>.cls-1,.cls-3{fill:#482ff7;}.cls-1{opacity:0.29;}.cls-2{fill:none;stroke:#482ff7;stroke-linecap:round;stroke-miterlimit:10;stroke-width:3px;}.cls-4{fill:#ffc200;}</style></defs><title>Plan de travail 1</title><circle class="cls-1" cx="125" cy="112.5" r="55"/><path class="cls-2" d="M70,166.5a55,55,0,0,1,110,0"/><circle class="cls-3" cx="125" cy="101.5" r="55"/><path class="cls-3" d="M132.18,196.67l-5.61,6.17a2,2,0,0,1-3,0l-5.6-6.17a10,10,0,0,1-2.57-7.51l4.47-56.66h10.37l4.46,56.66A10,10,0,0,1,132.18,196.67Z"/><path class="cls-4" d="M116.07,116.74q0-8.13,9.05-8.13t9,8.13a7.93,7.93,0,0,1-2.26,6q-2.26,2.15-6.79,2.15Q116.06,124.92,116.07,116.74Z"/></svg>